<?xml version="1.0" encoding="UTF-8"?><svg id="Camada_1" xmlns="http://www.w3.org/2000/svg" viewBox="0 0 298.3 180.21"><defs><style>.cls-1{fill:#4a2566;}</style></defs><path id="Caminho_106" class="cls-1" d="M298.26,88.04c-.67-27.05-13.5-52.36-34.92-68.89C249.21,6.99,232.21,1.2,213.21,.14c-15.9-.9-30.94,2.69-45.29,9.37-17.63,8.17-32.33,20.16-44.95,34.8-.36,.39-.71,.78-1.13,1.22-.32-.6-.54-1.03-.77-1.47-5.07-10.25-10.11-20.48-15.21-30.67-1.82-3.67-4.02-7.07-7.24-9.7-4.7-3.89-10.22-3.51-14.01,1.24-1.82,2.33-3.37,4.85-4.63,7.52-7.04,14.12-13.96,28.3-20.93,42.41C41.43,90.65,23.81,126.44,6.2,162.23c4.19-3.27,8.96-7.02,13.79-10.81l21.84-17.11c.09-.08,.19-.15,.28-.22,1.66-1.32,3.55-2.32,5.57-2.95l9.43-20.35c.65-1.31,1.29-2.63,1.94-3.94l.02-.04c2.64-5.36,5.29-10.71,7.96-16.06,7.95-16.05,15.91-32.1,23.87-48.14,.23-.4,.4-.81,.64-1.22,.54-.94,1.22-.93,1.91-.19,.34,.39,.61,.82,.82,1.29,2.46,4.91,4.92,9.84,7.39,14.78l20.34,40.66c3.16,6.09,6,12.32,8.89,18.53,4.78,10.27,9.64,20.45,16.16,29.81,14.73,21.19,38.86,33.86,64.66,33.95,18.2-.65,35.77-6.84,50.36-17.74-5.62-4.19-12.08-8.99-19.18-14.26-.13-.09-.25-.19-.37-.28-1.3,.78-2.63,1.51-3.98,2.18-8.85,4.48-18.58,6.93-28.49,7.17-.65,.01-1.3,.02-1.95,.02-17.4-1.02-33.41-10.38-43.26-26.32-4.81-7.82-8.76-16.19-12.9-24.4-3.52-7.02-6.97-14.05-10.41-21.1-2.46-5-4.91-10.01-7.36-15.02-.62-1.28-1-2.39,.03-3.73,9.9-12.71,21.17-23.94,35.18-32.15,12.78-7.5,26.5-11.95,41.44-11.56,14.22,.35,26.6,4.48,36.66,12.95,29.11,20.98,36.52,61.16,16.82,91.14,6.59,4.9,13.19,9.81,18.46,13.73,10.58-15.54,16-34.02,15.49-52.82h0Z"/><path id="Caminho_107" class="cls-1" d="M281.67,173.84s-6.58-4.89-17.48-12.99c-5.17-3.85-11.31-8.42-18.2-13.54-.38-.28-.75-.57-1.1-.85-19.75-15.73-5.13-34.36-5.13-34.36l23.08,17.16c6.75,5.02,13.61,10.12,18.44,13.71,.08,.06,.16,.12,.24,.18,13.08,9.72,.15,30.69,.15,30.69h0Z"/><path id="Caminho_108" class="cls-1" d="M70.6,146.13s-6.45,5.05-17.14,13.44c-5.07,3.97-11.1,8.7-17.85,13.98-.37,.29-.74,.57-1.11,.84-4.65,3.41-8.98,5.04-12.89,5.54h0c-8.7,1.1-15.31-3.43-18.81-6.65-1.01-.91-1.95-1.91-2.79-2.99,0,0,1.56-1.22,4.11-3.22l41.4-31.3c11.92-3.72,25.08,10.36,25.08,10.36h0Z"/></svg>