<svg xmlns="http://www.w3.org/2000/svg" xmlns:xlink="http://www.w3.org/1999/xlink" width="438" height="275.998" viewBox="0 0 438 275.998">
  <defs>
    <filter id="Uni達o_2" x="0" y="0" width="438" height="275.998" filterUnits="userSpaceOnUse">
      <feOffset input="SourceAlpha"/>
      <feGaussianBlur stdDeviation="9" result="blur"/>
      <feFlood flood-opacity="0.278"/>
      <feComposite operator="in" in2="blur"/>
      <feComposite in="SourceGraphic"/>
    </filter>
  </defs>
  <g transform="matrix(1, 0, 0, 1, 0, 0)" filter="url(#Uni達o_2)">
    <g id="Uni達o_2-2" data-name="Uni達o 2" transform="translate(-20246 19126)" fill="#fff">
      <path d="M 20427.001953125 -18878.095703125 L 20414.58984375 -18902.228515625 L 20414.44921875 -18902.5 L 20414.14453125 -18902.5 L 20283 -18902.5 C 20277.76171875 -18902.5 20273.5 -18906.76171875 20273.5 -18912 L 20273.5 -19089 C 20273.5 -19094.23828125 20277.76171875 -19098.5 20283 -19098.5 L 20647 -19098.5 C 20652.23828125 -19098.5 20656.5 -19094.23828125 20656.5 -19089 L 20656.5 -18912 C 20656.5 -18906.76171875 20652.23828125 -18902.5 20647 -18902.5 L 20439.859375 -18902.5 L 20439.5546875 -18902.5 L 20439.4140625 -18902.228515625 L 20427.001953125 -18878.095703125 Z" stroke="none"/>
      <path d="M 20427.001953125 -18879.1875 L 20439.25 -18903 L 20647 -18903 C 20651.962890625 -18903 20656 -18907.037109375 20656 -18912 L 20656 -19089 C 20656 -19093.962890625 20651.962890625 -19098 20647 -19098 L 20283 -19098 C 20278.037109375 -19098 20274 -19093.962890625 20274 -19089 L 20274 -18912 C 20274 -18907.037109375 20278.037109375 -18903 20283 -18903 L 20414.75390625 -18903 L 20427.001953125 -18879.1875 M 20427.001953125 -18877.001953125 L 20414.14453125 -18902 L 20283 -18902 C 20277.478515625 -18902 20273 -18906.474609375 20273 -18912 L 20273 -19089 C 20273 -19094.521484375 20277.478515625 -19099 20283 -19099 L 20647 -19099 C 20652.521484375 -19099 20657 -19094.521484375 20657 -19089 L 20657 -18912 C 20657 -18906.474609375 20652.521484375 -18902 20647 -18902 L 20439.859375 -18902 L 20427.001953125 -18877.001953125 Z" stroke="none" fill="#fff"/>
    </g>
  </g>
</svg>
